<?xml version="1.0" standalone="no"?><!DOCTYPE svg PUBLIC "-//W3C//DTD SVG 1.1//EN" "http://www.w3.org/Graphics/SVG/1.1/DTD/svg11.dtd"><svg t="1744275386108" class="icon" viewBox="0 0 1324 1024" version="1.1" xmlns="http://www.w3.org/2000/svg" p-id="11866" xmlns:xlink="http://www.w3.org/1999/xlink" width="165.5" height="128"><path d="M439.746413 1023.999659h151.333497c19.85194 0 36.973214-16.274768 36.973214-36.625055V663.189966L525.339132 607.573131 402.773199 679.457907v307.916697c0 20.34346 16.431781 36.625054 36.973214 36.625055zM0.477867 669.764043l494.250501-292.181236 28.671991-17.066661 29.354657 16.383995 148.138617 81.237306 396.629201-339.28522-55.978648-64.170645 138.581287-27.306658 138.581287-27.306657-45.738651 133.802622-45.738651 133.802622-52.565316-60.074647-428.031858 366.591878-30.719989 26.623991-35.498655-19.797327-154.965282-85.333305-465.578511 275.114575-59.39198-101.034633zM125.719851 1023.999659h151.333497c19.85194 0 36.973214-16.424955 36.973214-36.952735V730.45309l-225.279925 132.744489v123.849345A36.809374 36.809374 0 0 0 125.719851 1023.999659z m628.053124 0h151.333497c19.85194 0 36.973214-16.315728 36.973214-36.713801V531.09401c0-2.041173 0-4.082345-0.682666-5.440852L719.530427 713.980349l-2.737493-1.365333v275.353508c0 19.715407 16.431781 36.031135 36.973215 36.031135z m320.853227 0h151.333496c19.85194 0 36.973214-16.452261 36.973214-37.007348v-555.144348L1171.865209 327.679891 1037.652987 442.818412v544.173899a36.836681 36.836681 0 0 0 36.973215 37.007348z" fill="#327DF6" p-id="11867"></path></svg>